<svg xmlns="http://www.w3.org/2000/svg" xmlns:xlink="http://www.w3.org/1999/xlink" width="500" zoomAndPan="magnify" viewBox="0 0 375 374.999991" height="500" preserveAspectRatio="xMidYMid meet" version="1.0"><defs><clipPath id="d04fb5d7fa"><path d="M 37.5 45.128906 L 337.5 45.128906 L 337.5 345.128906 L 37.5 345.128906 Z M 37.5 45.128906 " clip-rule="nonzero"/></clipPath><clipPath id="b1c94ca289"><path d="M 187.5 45.128906 C 104.65625 45.128906 37.5 112.285156 37.5 195.128906 C 37.5 277.972656 104.65625 345.128906 187.5 345.128906 C 270.34375 345.128906 337.5 277.972656 337.5 195.128906 C 337.5 112.285156 270.34375 45.128906 187.5 45.128906 " clip-rule="nonzero"/></clipPath></defs><g clip-path="url(#d04fb5d7fa)"><g clip-path="url(#b1c94ca289)"><path fill="#b75d69" d="M 37.5 45.128906 L 337.5 45.128906 L 337.5 345.128906 L 37.5 345.128906 Z M 37.5 45.128906 " fill-opacity="1" fill-rule="nonzero"/><path stroke-linecap="butt" transform="matrix(0.75, 0, 0, 0.75, 37.500002, 45.129153)" fill="none" stroke-linejoin="miter" d="M 200.00001 -0.000329049 C 89.54167 -0.000329049 -0.00000271667 89.541343 -0.00000271667 199.999684 C -0.00000271667 310.458025 89.54167 399.999697 200.00001 399.999697 C 310.458351 399.999697 400.000024 310.458025 400.000024 199.999684 C 400.000024 89.541343 310.458351 -0.000329049 200.00001 -0.000329049 " stroke="#303030" stroke-width="4" stroke-opacity="1" stroke-miterlimit="4"/></g></g><path stroke-linecap="butt" transform="matrix(2, 0, 0, 2, 104.828119, 8.538045)" fill="none" stroke-linejoin="miter" d="M 46.29883 84.100117 L 14.609378 46.57668 C 17.707034 44.311055 21.978518 42.932149 27.316409 42.932149 C 35.726565 42.932149 43.720705 49.129415 43.720705 55.301289 L 43.720705 57.020039 C 43.720705 57.879414 44.476565 58.60793 45.33594 58.60793 C 46.195315 58.60793 46.92383 57.879414 46.92383 57.020039 L 46.92383 41.342305 C 46.92383 40.48293 46.195315 39.83254 45.33594 39.83254 C 44.476565 39.83254 43.720705 40.48293 43.720705 41.342305 L 43.720705 47.20168 C 39.998049 42.723165 33.591799 39.729024 27.316409 39.729024 C 14.191409 39.729024 6.197268 47.307149 6.197268 57.020039 C 6.197268 62.018086 8.541018 67.564961 13.019534 72.902852 L 43.095705 108.734882 C 39.58008 112.172382 34.347659 114.410664 27.941409 114.410664 C 17.291018 114.410664 7.785159 107.693867 7.785159 100.219258 L 7.785159 97.225117 C 7.785159 96.365742 7.031253 95.740742 6.197268 95.740742 C 5.337893 95.740742 4.583987 96.365742 4.583987 97.225117 L 4.583987 116.000507 C 4.583987 116.859882 5.337893 117.484882 6.197268 117.484882 C 7.031253 117.484882 7.785159 116.859882 7.785159 116.000507 L 7.785159 108.865742 C 12.160159 114.281757 20.363284 117.588398 27.941409 117.588398 C 42.029299 117.588398 51.29883 107.900898 51.29883 97.225117 C 51.29883 92.746601 49.814455 88.268086 46.29883 84.100117 Z M 46.29883 84.100117 " stroke="#eeeeee" stroke-width="3.9999" stroke-opacity="1" stroke-miterlimit="4"/><path stroke-linecap="butt" transform="matrix(2, 0, 0, 2, 158.79688, 46.129149)" fill="none" stroke-linejoin="miter" d="M 52.054684 41.343628 L 7.890623 41.343628 C 6.925779 41.343628 6.406248 41.968628 6.406248 42.722534 C 6.406248 43.581909 6.925779 44.312378 7.890623 44.312378 L 12.265622 44.312378 L 12.265622 113.005736 L 7.369138 113.005736 C 6.406248 113.005736 5.859373 113.656127 5.859373 114.515502 C 5.859373 115.244018 6.406248 115.999877 7.369138 115.999877 L 36.169919 115.999877 C 37.341794 115.999877 37.861325 115.349486 37.861325 114.515502 C 37.861325 113.759643 37.341794 113.005736 36.169919 113.005736 L 28.904294 113.005736 L 28.904294 78.658081 L 47.261716 78.658081 L 47.261716 83.78894 C 47.261716 84.751831 48.0957 85.273315 48.851559 85.273315 C 49.710934 85.273315 50.43945 84.751831 50.43945 83.78894 L 50.43945 70.560425 C 50.43945 69.597534 49.605466 69.07605 48.851559 69.07605 C 47.992184 69.07605 47.261716 69.597534 47.261716 70.560425 L 47.261716 75.689331 L 28.904294 75.689331 L 28.904294 44.312378 L 50.335934 44.312378 L 50.335934 54.988159 C 50.335934 55.95105 51.195309 56.472534 51.949216 56.472534 C 52.679684 56.472534 53.539059 55.95105 53.539059 54.988159 L 53.539059 42.828003 C 53.539059 41.968628 52.914059 41.343628 52.054684 41.343628 Z M 52.054684 41.343628 " stroke="#eeeeee" stroke-width="4.000012" stroke-opacity="1" stroke-miterlimit="4"/></svg>